<svg width="14" height="14" viewBox="0 0 14 14" fill="none" xmlns="http://www.w3.org/2000/svg">
<path fill-rule="evenodd" clip-rule="evenodd" d="M6.12567 12.9641L0.36786 10.2608C-0.12262 10.0248 -0.12262 9.66003 0.36786 9.44548L2.37243 8.50146L6.10434 10.2608C6.59482 10.4968 7.38385 10.4968 7.85301 10.2608L11.5849 8.50146L13.5895 9.44548C14.08 9.68148 14.08 10.0462 13.5895 10.2608L7.83168 12.9641C7.38385 13.1786 6.59482 13.1786 6.12567 12.9641Z" fill="#FF6F3D"/>
<path fill-rule="evenodd" clip-rule="evenodd" d="M6.12567 9.63854L0.36786 6.93523C-0.12262 6.69923 -0.12262 6.33449 0.36786 6.11995L2.32978 5.19739L6.12567 6.97814C6.61615 7.21414 7.40518 7.21414 7.87433 6.97814L11.6702 5.19739L13.6321 6.11995C14.1226 6.35595 14.1226 6.72068 13.6321 6.93523L7.87433 9.63854C7.38385 9.87454 6.59482 9.87454 6.12567 9.63854Z" fill="#95C038"/>
<path fill-rule="evenodd" clip-rule="evenodd" d="M6.12567 6.3989L0.36786 3.69559C-0.12262 3.45959 -0.12262 3.09486 0.36786 2.88031L6.12567 0.177002C6.61615 -0.0590008 7.40518 -0.0590008 7.87433 0.177002L13.6321 2.88031C14.1226 3.11631 14.1226 3.48105 13.6321 3.69559L7.87433 6.3989C7.38385 6.61345 6.59482 6.61345 6.12567 6.3989Z" fill="#5DC0E8"/>
</svg>
