<svg width="16" height="16" viewBox="0 0 16 16" fill="none" xmlns="http://www.w3.org/2000/svg">
<path fill-rule="evenodd" clip-rule="evenodd" d="M7.30592 12.3357L3.36299 10.5057C3.02711 10.3459 3.02711 10.099 3.36299 9.95375L4.73572 9.3147L7.29132 10.5057C7.6272 10.6654 8.16752 10.6654 8.4888 10.5057L11.0444 9.3147L12.4171 9.95375C12.753 10.1135 12.753 10.3604 12.4171 10.5057L8.47419 12.3357C8.16752 12.4809 7.6272 12.4809 7.30592 12.3357Z" fill="#FF6F3D"/>
<path fill-rule="evenodd" clip-rule="evenodd" d="M7.29314 10.071L3.36223 8.23883C3.02737 8.07888 3.02737 7.83169 3.36223 7.68629L4.70165 7.06104L7.29314 8.26791C7.62799 8.42786 8.16668 8.42786 8.48697 8.26791L11.0785 7.06104L12.4179 7.68629C12.7527 7.84623 12.7527 8.09343 12.4179 8.23883L8.48697 10.071C8.15212 10.2309 7.61344 10.2309 7.29314 10.071Z" fill="#95C038"/>
<path fill-rule="evenodd" clip-rule="evenodd" d="M7.29314 7.83003L3.36223 6.02426C3.02737 5.86661 3.02737 5.62298 3.36223 5.47966L7.29314 3.6739C7.62799 3.51625 8.16668 3.51625 8.48697 3.6739L12.4179 5.47966C12.7527 5.63731 12.7527 5.88095 12.4179 6.02426L8.48697 7.83003C8.15212 7.97334 7.61344 7.97334 7.29314 7.83003Z" fill="#5DC0E8"/>
</svg>
