<svg width="16" height="16" viewBox="0 0 16 16" fill="none" xmlns="http://www.w3.org/2000/svg">
<path fill-rule="evenodd" clip-rule="evenodd" d="M7.02212 14.826L0.421696 11.9026C-0.140565 11.6473 -0.140565 11.2529 0.421696 11.0209L2.71963 10L6.99773 11.9026C7.55996 12.1577 8.4645 12.1577 9.00227 11.9026L13.2803 10L15.5783 11.0209C16.1406 11.2761 16.1406 11.6705 15.5783 11.9026L8.97781 14.826C8.4645 15.058 7.55996 15.058 7.02212 14.826Z" fill="url(#paint0_linear_57_238)"/>
<path fill-rule="evenodd" clip-rule="evenodd" d="M7.02212 14.826L0.421696 11.9026C-0.140565 11.6473 -0.140565 11.2529 0.421696 11.0209L2.71963 10L6.99773 11.9026C7.55996 12.1577 8.4645 12.1577 9.00227 11.9026L13.2803 10L15.5783 11.0209C16.1406 11.2761 16.1406 11.6705 15.5783 11.9026L8.97781 14.826C8.4645 15.058 7.55996 15.058 7.02212 14.826Z" fill="#FF6F3D"/>
<path fill-rule="evenodd" clip-rule="evenodd" d="M7.00085 11.3083L0.420647 8.38155C-0.13989 8.12601 -0.13989 7.73115 0.420647 7.49884L2.6628 6.5L7.00085 8.42801C7.56142 8.68349 8.46312 8.68349 8.99931 8.42801L13.3374 6.5L15.5795 7.49884C16.1401 7.75438 16.1401 8.14924 15.5795 8.38155L8.99931 11.3083C8.4388 11.5639 7.53704 11.5639 7.00085 11.3083Z" fill="url(#paint1_linear_57_238)"/>
<path fill-rule="evenodd" clip-rule="evenodd" d="M7.00085 11.3083L0.420647 8.38155C-0.13989 8.12601 -0.13989 7.73115 0.420647 7.49884L2.6628 6.5L7.00085 8.42801C7.56142 8.68349 8.46312 8.68349 8.99931 8.42801L13.3374 6.5L15.5795 7.49884C16.1401 7.75438 16.1401 8.14924 15.5795 8.38155L8.99931 11.3083C8.4388 11.5639 7.53704 11.5639 7.00085 11.3083Z" fill="#95C038"/>
<path fill-rule="evenodd" clip-rule="evenodd" d="M7.00063 7.82537L0.420403 4.9419C-0.140134 4.69016 -0.140134 4.30112 0.420403 4.07228L7.00063 1.1888C7.56114 0.937067 8.4629 0.937067 8.99909 1.1888L15.5793 4.07228C16.1398 4.32401 16.1398 4.71305 15.5793 4.9419L8.99909 7.82537C8.43852 8.05424 7.53682 8.05424 7.00063 7.82537Z" fill="#5DC0E8"/>
<defs>
<linearGradient id="paint0_linear_57_238" x1="25.0959" y1="17.5971" x2="25.0959" y2="6.9239" gradientUnits="userSpaceOnUse">
<stop stop-color="#FCC2B1"/>
<stop offset="0.8848" stop-color="#D9420B"/>
</linearGradient>
<linearGradient id="paint1_linear_57_238" x1="19.2383" y1="13.0566" x2="19.2383" y2="6.02904" gradientUnits="userSpaceOnUse">
<stop stop-color="#DEEDC9"/>
<stop offset="0.6606" stop-color="#8BBA25"/>
</linearGradient>
</defs>
</svg>
