<svg width="20" height="20" viewBox="0 0 20 20" fill="none" xmlns="http://www.w3.org/2000/svg">
<path fill-rule="evenodd" clip-rule="evenodd" d="M15.2929 3.29289L15.27 3.31582L15.2469 3.33885L15.2238 3.36197L15.2006 3.38518L15.1773 3.40849L15.1539 3.43189L15.1304 3.45539L15.1068 3.47897L15.0831 3.50265L15.0594 3.52642L15.0355 3.55028L15.0116 3.57423L14.9875 3.59826L14.9634 3.62239L14.9392 3.64661L14.9149 3.67091L14.8905 3.6953L14.866 3.71977L14.8414 3.74434L14.8168 3.76898L14.7921 3.79372L14.7673 3.81853L14.7424 3.84343L14.7174 3.86842L14.6923 3.89349L14.6672 3.91863L14.6419 3.94386L14.6166 3.96918L14.5912 3.99457L14.5657 4.02004L14.5402 4.04559L14.5146 4.07122L14.4889 4.09693L14.4631 4.12272L14.4372 4.14858L14.4113 4.17452L14.3852 4.20054L14.3592 4.22663L14.333 4.2528L14.3067 4.27904L14.2804 4.30535L14.254 4.33174L14.2276 4.3582L14.201 4.38474L14.1744 4.41134L14.1478 4.43802L14.121 4.46477L14.0942 4.49159L14.0673 4.51847L14.0404 4.54543L14.0133 4.57245L13.9862 4.59955L13.9591 4.62671L13.9319 4.65393L13.9046 4.68122L13.8772 4.70858L13.8498 4.73601L13.8223 4.76349L13.7947 4.79105L13.7671 4.81866L13.7394 4.84634L13.7117 4.87408L13.6839 4.90189L13.656 4.92975L13.6281 4.95767L13.6001 4.98566L13.5721 5.0137L13.544 5.04181L13.5158 5.06997L13.4876 5.09819L13.4593 5.12647L13.431 5.1548L13.4026 5.18319L13.3741 5.21164L13.3456 5.24014L13.3171 5.2687L13.2885 5.29731L13.2598 5.32598L13.2311 5.35469L13.2023 5.38346L13.1735 5.41229L13.1446 5.44116L13.1157 5.47008L13.0867 5.49906L13.0577 5.52808L13.0286 5.55716L12.9995 5.58628L12.9703 5.61545L12.9411 5.64467L12.9119 5.67393L12.8825 5.70324L12.8532 5.7326L12.8238 5.762L12.7943 5.79145L12.7648 5.82094L12.7353 5.85048L12.7057 5.88006L12.6761 5.90968L12.6464 5.93934L12.6167 5.96905L12.587 5.99879L12.5572 6.02858L12.5274 6.05841L12.4975 6.08827L12.4676 6.11818L12.4377 6.14812L12.4077 6.1781L12.3777 6.20812L12.3476 6.23817L12.3175 6.26826L12.2874 6.29839L12.2572 6.32855L12.227 6.35874L12.1968 6.38897L12.1666 6.41923L12.1363 6.44953L12.1059 6.47985L12.0756 6.51021L12.0452 6.5406L12.0148 6.57102L11.9843 6.60147L11.9538 6.63195L11.9233 6.66246L11.8928 6.693L11.8622 6.72356L11.8316 6.75415L11.801 6.78477L11.7704 6.81542L11.7397 6.84609L11.709 6.87678L11.6783 6.9075L11.6475 6.93825L11.6168 6.96901L11.586 6.9998L11.5552 7.03062L11.5243 7.06145L11.4935 7.09231L11.4626 7.12318L11.4317 7.15408L11.4008 7.18499L11.3699 7.21593L11.3389 7.24688L11.3079 7.27785L11.2769 7.30884L11.2459 7.33985L11.2149 7.37087L11.1839 7.4019L11.1528 7.43296L11.1218 7.46402L11.0907 7.4951L11.0596 7.5262L11.0285 7.55731L10.9974 7.58843L10.9662 7.61956L10.9351 7.6507L10.9039 7.68186L10.8728 7.71302L10.8416 7.74419L10.8104 7.77538L10.7792 7.80657L10.748 7.83777L10.7168 7.86897L10.6856 7.90019L10.6544 7.93141L10.6231 7.96264L10.5919 7.99387L10.5607 8.0251L10.5294 8.05634L10.4982 8.08759L10.467 8.11883L10.4357 8.15008L10.4045 8.18134L10.3732 8.21259L10.3419 8.24384L10.3107 8.2751L10.2794 8.30635L10.2482 8.3376L10.2169 8.36886L10.1857 8.40011L10.1544 8.43135L10.1232 8.4626L10.0919 8.49384L10.0607 8.52508L10.0295 8.55631L9.99825 8.58754L9.96703 8.61876L9.93581 8.64997L9.9046 8.68118L9.8734 8.71238L9.84221 8.74358L9.81102 8.77476L9.77985 8.80594L9.74868 8.8371L9.71752 8.86826L9.68638 8.89941L9.65524 8.93054L9.62412 8.96166L9.59301 8.99277L9.56191 9.02387L9.53083 9.05496L9.49976 9.08603L9.4687 9.11708L9.43766 9.14812L9.40664 9.17915L9.37563 9.21016L9.34464 9.24115L9.31366 9.27213L9.2827 9.30308L9.25176 9.33402L9.22084 9.36494L9.18994 9.39584L9.15906 9.42672L9.1282 9.45758L9.09736 9.48842L9.06655 9.51924L9.03575 9.55004L9.00498 9.58081L8.97423 9.61156L8.9435 9.64228L8.9128 9.67298L8.88213 9.70366L8.85147 9.73431L8.82085 9.76494L8.79025 9.79553L8.75968 9.8261L8.72914 9.85665L8.69862 9.88716L8.66814 9.91765L8.63768 9.94811L8.60725 9.97853L8.57685 10.0089L8.54649 10.0393L8.51616 10.0696L8.48585 10.0999L8.45558 10.1302L8.42535 10.1604L8.39514 10.1906L8.36497 10.2208L8.33484 10.2509L8.30474 10.281L8.27468 10.3111L8.24466 10.3411L8.21467 10.3711L8.18472 10.4011L8.1548 10.431L8.12493 10.4609L8.09509 10.4907L8.0653 10.5205L8.03554 10.5502L8.00583 10.58L7.97615 10.6096L7.94652 10.6393L7.91693 10.6689L7.88739 10.6984L7.85789 10.7279L7.82843 10.7574L7.79901 10.7868L7.76965 10.8161L7.74032 10.8455L7.71105 10.8747L7.68182 10.904L7.65264 10.9331L7.6235 10.9623L7.59442 10.9914L7.56538 11.0204L7.5364 11.0494L7.50746 11.0783L7.47857 11.1072L7.44974 11.136L7.42096 11.1648L7.39223 11.1936L7.36355 11.2222L7.33493 11.2509L7.30636 11.2794L7.27784 11.3079L7.24938 11.3364L7.22098 11.3648L7.19263 11.3932L7.16434 11.4214L7.13611 11.4497L7.10793 11.4779L7.07981 11.506L7.05176 11.534L7.02376 11.562L6.99582 11.59L6.96794 11.6178L6.94012 11.6457L6.91237 11.6734L6.88467 11.7011L6.85704 11.7287L6.82948 11.7563L6.80197 11.7838L6.77453 11.8113L6.74716 11.8386L6.71985 11.8659L6.69261 11.8932L6.66544 11.9204L6.63833 11.9475L6.61129 11.9745L6.58432 12.0015L6.55741 12.0284L6.53058 12.0552L6.50381 12.082L6.47712 12.1087L6.4505 12.1353L6.42395 12.1618L6.39747 12.1883L6.37106 12.2147L6.34473 12.2411L6.31847 12.2673L6.29229 12.2935L6.26618 12.3196L6.24015 12.3456L6.21419 12.3716L6.18831 12.3975L6.1625 12.4233L6.13677 12.449L6.11113 12.4747L6.08556 12.5002L6.06007 12.5257L6.03465 12.5511L6.00932 12.5765L5.98408 12.6017L5.95891 12.6269L5.93382 12.652L5.90882 12.677L5.8839 12.7019L5.85906 12.7267L5.83431 12.7515L5.80964 12.7761L5.78506 12.8007L5.76056 12.8252L5.73615 12.8496L5.71183 12.874L5.6876 12.8982L5.66345 12.9223L5.63939 12.9464L5.61542 12.9704L5.59154 12.9942L5.56775 13.018L5.54405 13.0417L5.52044 13.0653L5.49693 13.0889L5.47351 13.1123L5.45018 13.1356L5.42694 13.1588L5.4038 13.182L5.38075 13.205L5.3578 13.228L5.33494 13.2508L5.31218 13.2736L5.28952 13.2963L5.26695 13.3188L5.24448 13.3413L5.22211 13.3637L5.19984 13.3859L5.17767 13.4081L5.1556 13.4302L5.13363 13.4522L5.11176 13.474L5.09 13.4958L5.06833 13.5175L5.04677 13.539L5.02531 13.5605L5.00396 13.5818L4.98271 13.6031L4.96156 13.6242L4.94053 13.6453L4.91959 13.6662L4.89877 13.687L4.87805 13.7077L4.85744 13.7283L4.83693 13.7489L4.81654 13.7692L4.79626 13.7895L4.77608 13.8097L4.75602 13.8298L4.73607 13.8497L4.71623 13.8696L4.6965 13.8893L4.67688 13.9089L4.65738 13.9284L4.63799 13.9478L4.61872 13.9671L4.59956 13.9862L4.58052 14.0053L4.56159 14.0242L4.54278 14.043L4.52409 14.0617L4.50551 14.0803L4.48705 14.0987L4.46871 14.1171L4.45049 14.1353L4.43239 14.1534L4.41442 14.1714L4.39656 14.1892L4.37882 14.207L4.36121 14.2246L4.34372 14.2421L4.32635 14.2594L4.3091 14.2767L4.29198 14.2938L4.27499 14.3108L4.25812 14.3277L4.24137 14.3444L4.22476 14.361L4.20827 14.3775L4.1919 14.3939L4.17567 14.4101L4.15956 14.4262L4.14359 14.4422L4.12774 14.458L4.11202 14.4738L4.09644 14.4893L4.08098 14.5048L4.06566 14.5201L4.05047 14.5353L4.03542 14.5504L4.02049 14.5653L4.0057 14.5801L3.99105 14.5947L3.97653 14.6093L3.96215 14.6236L3.9479 14.6379L3.93379 14.652L3.91982 14.666L3.90599 14.6798L3.89229 14.6935L3.87874 14.707L3.86532 14.7205L3.85205 14.7337L3.83891 14.7469L3.82592 14.7599L3.81306 14.7727L3.80035 14.7854L3.78779 14.798L3.77537 14.8104L3.76309 14.8227L3.75095 14.8348L3.73896 14.8468L3.72712 14.8587L3.71542 14.8704L3.70387 14.8819L3.69247 14.8933L3.68121 14.9046L3.67011 14.9157L3.65915 14.9266L3.64834 14.9374L3.63768 14.9481L3.62718 14.9586L3.61682 14.969L3.60662 14.9792L3.59657 14.9892L3.58667 14.9991L3.57692 15.0089L3.56733 15.0185L3.55789 15.0279L3.54861 15.0372L3.53948 15.0463L3.53051 15.0553L3.5217 15.0641L3.51305 15.0727L3.50455 15.0812L3.49621 15.0896L3.48803 15.0978L3.48 15.1058L3.47214 15.1136L3.46444 15.1213L3.4569 15.1289L3.44952 15.1363L3.44231 15.1435L3.43526 15.1505L3.42837 15.1574L3.42164 15.1641L3.41508 15.1707L3.40868 15.1771L3.40245 15.1833L3.39638 15.1894L3.39049 15.1953L3.38475 15.201L3.37919 15.2066L3.3738 15.212L3.36857 15.2172L3.36351 15.2223L3.35862 15.2272L3.35391 15.2319L3.34936 15.2364L3.34499 15.2408L3.34078 15.245L3.33676 15.249L3.3329 15.2529L3.32922 15.2566L3.32571 15.2601L3.32237 15.2634L3.31922 15.2666L3.31623 15.2696L3.31343 15.2724L3.3108 15.275L3.30835 15.2774L3.30607 15.2797L3.30398 15.2818L3.30207 15.2837L3.30033 15.2855L3.29878 15.287L3.2974 15.2884L3.29621 15.2896L3.2952 15.2906L3.29437 15.2914L3.29372 15.2921L3.29326 15.2925L3.29299 15.2928C3.29292 15.2929 3.29289 15.2929 4 16C4.70711 16.7071 4.70714 16.7071 4.7072 16.707L4.70748 16.7067L4.70794 16.7063L4.70858 16.7056L4.70941 16.7048L4.71042 16.7038L4.71161 16.7026L4.71299 16.7012L4.71454 16.6997L4.71628 16.6979L4.71819 16.696L4.72029 16.6939L4.72256 16.6917L4.72501 16.6892L4.72764 16.6866L4.73045 16.6838L4.73343 16.6808L4.73659 16.6776L4.73992 16.6743L4.74343 16.6708L4.74711 16.6671L4.75097 16.6632L4.755 16.6592L4.7592 16.655L4.76358 16.6506L4.76812 16.6461L4.77284 16.6414L4.77773 16.6365L4.78278 16.6314L4.78801 16.6262L4.7934 16.6208L4.79897 16.6152L4.8047 16.6095L4.8106 16.6036L4.81666 16.5975L4.82289 16.5913L4.82929 16.5849L4.83585 16.5784L4.84258 16.5716L4.84947 16.5647L4.85652 16.5577L4.86374 16.5505L4.87112 16.5431L4.87866 16.5356L4.88636 16.5279L4.89422 16.52L4.90224 16.512L4.91042 16.5038L4.91876 16.4955L4.92726 16.487L4.93591 16.4783L4.94473 16.4695L4.9537 16.4605L4.96282 16.4514L4.97211 16.4421L4.98154 16.4327L4.99114 16.4231L5.00088 16.4133L5.01078 16.4034L5.02083 16.3934L5.03104 16.3832L5.04139 16.3728L5.0519 16.3623L5.06256 16.3517L5.07336 16.3408L5.08432 16.3299L5.09543 16.3188L5.10668 16.3075L5.11809 16.2961L5.12964 16.2846L5.14133 16.2729L5.15318 16.261L5.16517 16.249L5.1773 16.2369L5.18958 16.2246L5.202 16.2122L5.21457 16.1996L5.22728 16.1869L5.24013 16.1741L5.25312 16.1611L5.26626 16.148L5.27954 16.1347L5.29295 16.1213L5.30651 16.1077L5.3202 16.094L5.33404 16.0802L5.34801 16.0662L5.36212 16.0521L5.37636 16.0378L5.39075 16.0235L5.40526 16.0089L5.41992 15.9943L5.43471 15.9795L5.44963 15.9646L5.46469 15.9495L5.47988 15.9343L5.4952 15.919L5.51065 15.9036L5.52624 15.888L5.54195 15.8723L5.5578 15.8564L5.57378 15.8404L5.58988 15.8243L5.60612 15.8081L5.62248 15.7917L5.63897 15.7752L5.65559 15.7586L5.67233 15.7419L5.6892 15.725L5.7062 15.708L5.72332 15.6909L5.74056 15.6737L5.75793 15.6563L5.77542 15.6388L5.79304 15.6212L5.81077 15.6034L5.82863 15.5856L5.84661 15.5676L5.86471 15.5495L5.88293 15.5313L5.90127 15.5129L5.91972 15.4945L5.9383 15.4759L5.95699 15.4572L5.9758 15.4384L5.99473 15.4195L6.01377 15.4004L6.03293 15.3813L6.05221 15.362L6.07159 15.3426L6.0911 15.3231L6.11071 15.3035L6.13044 15.2838L6.15028 15.2639L6.17023 15.244L6.1903 15.2239L6.21047 15.2037L6.23075 15.1835L6.25115 15.1631L6.27165 15.1426L6.29226 15.122L6.31298 15.1012L6.33381 15.0804L6.35474 15.0595L6.37578 15.0384L6.39692 15.0173L6.41817 14.996L6.43953 14.9747L6.46098 14.9532L6.48255 14.9317L6.50421 14.91L6.52598 14.8882L6.54785 14.8664L6.56982 14.8444L6.59189 14.8223L6.61406 14.8002L6.63633 14.7779L6.6587 14.7555L6.68117 14.733L6.70373 14.7105L6.72639 14.6878L6.74916 14.6651L6.77201 14.6422L6.79496 14.6192L6.81801 14.5962L6.84115 14.5731L6.86439 14.5498L6.88772 14.5265L6.91114 14.5031L6.93466 14.4796L6.95827 14.4559L6.98196 14.4322L7.00575 14.4085L7.02963 14.3846L7.0536 14.3606L7.07766 14.3366L7.10181 14.3124L7.12604 14.2882L7.15037 14.2638L7.17478 14.2394L7.19927 14.2149L7.22386 14.1904L7.24852 14.1657L7.27327 14.1409L7.29811 14.1161L7.32303 14.0912L7.34803 14.0662L7.37312 14.0411L7.39829 14.0159L7.42354 13.9907L7.44887 13.9653L7.47428 13.9399L7.49977 13.9144L7.52534 13.8889L7.55099 13.8632L7.57671 13.8375L7.60252 13.8117L7.6284 13.7858L7.65436 13.7599L7.68039 13.7338L7.7065 13.7077L7.73269 13.6815L7.75895 13.6553L7.78528 13.6289L7.81168 13.6025L7.83816 13.5761L7.86471 13.5495L7.89134 13.5229L7.91803 13.4962L7.94479 13.4694L7.97163 13.4426L7.99853 13.4157L8.0255 13.3887L8.05254 13.3617L8.07965 13.3346L8.10682 13.3074L8.13407 13.2801L8.16138 13.2528L8.18875 13.2255L8.21619 13.198L8.24369 13.1705L8.27126 13.143L8.29889 13.1153L8.32658 13.0876L8.35434 13.0599L8.38215 13.0321L8.41003 13.0042L8.43797 12.9762L8.46597 12.9482L8.49403 12.9202L8.52214 12.8921L8.55032 12.8639L8.57855 12.8357L8.60685 12.8074L8.63519 12.779L8.6636 12.7506L8.69206 12.7222L8.72057 12.6936L8.74914 12.6651L8.77777 12.6364L8.80644 12.6078L8.83517 12.579L8.86395 12.5503L8.89279 12.5214L8.92167 12.4925L8.95061 12.4636L8.9796 12.4346L9.00863 12.4056L9.03772 12.3765L9.06685 12.3474L9.09603 12.3182L9.12526 12.289L9.15454 12.2597L9.18386 12.2304L9.21323 12.201L9.24264 12.1716L9.2721 12.1421L9.3016 12.1126L9.33115 12.0831L9.36073 12.0535L9.39037 12.0238L9.42004 11.9942L9.44975 11.9645L9.47951 11.9347L9.50931 11.9049L9.53914 11.8751L9.56902 11.8452L9.59893 11.8153L9.62888 11.7853L9.65887 11.7553L9.68889 11.7253L9.71896 11.6953L9.74906 11.6652L9.77919 11.635L9.80936 11.6049L9.83956 11.5747L9.8698 11.5444L9.90007 11.5141L9.93037 11.4838L9.9607 11.4535L9.99107 11.4231L10.0215 11.3927L10.0519 11.3623L10.0823 11.3319L10.1128 11.3014L10.1434 11.2709L10.1739 11.2403L10.2045 11.2097L10.2351 11.1791L10.2657 11.1485L10.2963 11.1179L10.327 11.0872L10.3577 11.0565L10.3884 11.0258L10.4192 10.995L10.45 10.9642L10.4808 10.9335L10.5116 10.9026L10.5424 10.8718L10.5733 10.8409L10.6042 10.8101L10.6351 10.7792L10.666 10.7482L10.6969 10.7173L10.7279 10.6863L10.7588 10.6554L10.7898 10.6244L10.8209 10.5934L10.8519 10.5623L10.8829 10.5313L10.914 10.5002L10.945 10.4692L10.9761 10.4381L11.0072 10.407L11.0383 10.3759L11.0695 10.3448L11.1006 10.3136L11.1317 10.2825L11.1629 10.2513L11.1941 10.2202L11.2252 10.189L11.2564 10.1578L11.2876 10.1266L11.3188 10.0954L11.35 10.0642L11.3812 10.033L11.4125 10.0018L11.4437 9.97052L11.4749 9.93929L11.5062 9.90805L11.5374 9.87681L11.5686 9.84557L11.5999 9.81432L11.6311 9.78307L11.6624 9.75182L11.6936 9.72056L11.7249 9.68931L11.7562 9.65806L11.7874 9.6268L11.8187 9.59555L11.8499 9.5643L11.8812 9.53305L11.9124 9.5018L11.9437 9.47056L11.9749 9.43932L12.0061 9.40808L12.0374 9.37685L12.0686 9.34562L12.0998 9.3144L12.131 9.28319L12.1622 9.25198L12.1934 9.22078L12.2246 9.18959L12.2558 9.15841L12.287 9.12723L12.3181 9.09607L12.3493 9.06492L12.3804 9.03377L12.4116 9.00264L12.4427 8.97152L12.4738 8.94041L12.5049 8.90932L12.536 8.87824L12.567 8.84717L12.5981 8.81612L12.6291 8.78508L12.6602 8.75406L12.6912 8.72305L12.7221 8.69207L12.7531 8.66109L12.7841 8.63014L12.815 8.59921L12.8459 8.56829L12.8768 8.5374L12.9077 8.50652L12.9385 8.47566L12.9694 8.44483L13.0002 8.41402L13.031 8.38323L13.0618 8.35246L13.0925 8.32172L13.1232 8.291L13.1539 8.2603L13.1846 8.22963L13.2152 8.19899L13.2458 8.16837L13.2764 8.13778L13.307 8.10721L13.3375 8.07667L13.368 8.04617L13.3985 8.01569L13.429 7.98524L13.4594 7.95482L13.4898 7.92443L13.5201 7.89407L13.5505 7.86374L13.5808 7.83345L13.611 7.80318L13.6413 7.77296L13.6715 7.74276L13.7016 7.7126L13.7317 7.68247L13.7618 7.65238L13.7919 7.62233L13.8219 7.59231L13.8519 7.56233L13.8818 7.53239L13.9117 7.50249L13.9416 7.47262L13.9714 7.44279L14.0012 7.41301L14.031 7.38326L14.0607 7.35356L14.0903 7.32389L14.1199 7.29427L14.1495 7.26469L14.1791 7.23516L14.2085 7.20566L14.238 7.17622L14.2674 7.14681L14.2968 7.11746L14.3261 7.08815L14.3553 7.05888L14.3846 7.02966L14.4137 7.00049L14.4428 6.97137L14.4719 6.9423L14.5009 6.91327L14.5299 6.8843L14.5588 6.85537L14.5877 6.8265L14.6165 6.79768L14.6453 6.76891L14.674 6.74019L14.7027 6.71152L14.7313 6.68291L14.7599 6.65436L14.7884 6.62585L14.8168 6.59741L14.8452 6.56902L14.8735 6.54068L14.9018 6.5124L14.93 6.48418L14.9582 6.45602L14.9863 6.42792L15.0143 6.39987L15.0423 6.37189L15.0702 6.34396L15.0981 6.3161L15.1259 6.2883L15.1537 6.26055L15.1813 6.23288L15.209 6.20526L15.2365 6.17771L15.264 6.15022L15.2914 6.1228L15.3188 6.09544L15.3461 6.06815L15.3733 6.04092L15.4005 6.01376L15.4275 5.98667L15.4546 5.95964L15.4815 5.93269L15.5084 5.9058L15.5352 5.87898L15.562 5.85223L15.5887 5.82556L15.6153 5.79895L15.6418 5.77242L15.6683 5.74596L15.6946 5.71957L15.721 5.69325L15.7472 5.66701L15.7734 5.64084L15.7995 5.61475L15.8255 5.58873L15.8514 5.56279L15.8773 5.53693L15.9031 5.51114L15.9288 5.48544L15.9544 5.45981L15.98 5.43425L16.0054 5.40878L16.0308 5.38339L16.0561 5.35808L16.0814 5.33285L16.1065 5.3077L16.1316 5.28263L16.1566 5.25765L16.1815 5.23275L16.2063 5.20793L16.231 5.1832L16.2557 5.15855L16.2802 5.13399L16.3047 5.10951L16.3291 5.08512L16.3534 5.06082L16.3776 5.0366L16.4017 5.01248L16.4258 4.98844L16.4497 4.96449L16.4736 4.94063L16.4973 4.91686L16.521 4.89319L16.5446 4.8696L16.5681 4.84611L16.5915 4.8227L16.6148 4.7994L16.638 4.77618L16.6612 4.75306L16.6842 4.73004L16.7071 4.70711L15.2929 3.29289ZM10 4C10.7646 4 11.5152 4.0895 12.2394 4.26059L10.4849 6.01514C10.3242 6.00508 10.1625 6 10 6C7.1678 6 4.57814 7.54524 3.22458 10C3.60771 10.6948 4.08987 11.3168 4.64854 11.8515L3.23402 13.266C2.38176 12.443 1.67277 11.4577 1.15818 10.3427L1 10L1.15818 9.65728C2.74991 6.20852 6.20163 4 10 4ZM10 14C9.83752 14 9.67584 13.9949 9.51514 13.9849L7.76059 15.7394C8.48479 15.9105 9.23537 16 10 16C13.7984 16 17.2501 13.7915 18.8418 10.3427L19 10L18.8418 9.65728C18.3272 8.54233 17.6182 7.557 16.766 6.73402L15.3515 8.14854C15.9101 8.68321 16.3923 9.30517 16.7754 10C15.4219 12.4548 12.8322 14 10 14Z" fill="#42526E"/>
</svg>
