<svg width="380" height="300" viewBox="0 0 380 300" fill="none" xmlns="http://www.w3.org/2000/svg">
<rect width="380" height="300" fill="#214479"/>
<path d="M262.45 85.2371V239.59C262.45 240.738 261.994 241.84 261.182 242.652C260.37 243.464 259.268 243.92 258.12 243.92H122.88C121.732 243.92 120.63 243.464 119.818 242.652C119.006 241.84 118.55 240.738 118.55 239.59V60.88C118.55 59.7316 119.006 58.6303 119.818 57.8182C120.63 57.0062 121.732 56.55 122.88 56.55H233.763L262.45 85.2371Z" fill="#214479" stroke="#1A3661"/>
<path opacity="0.2" d="M261.5 85.03H238.8C237.519 85.03 236.29 84.5211 235.385 83.6153C234.479 82.7095 233.97 81.481 233.97 80.2V57.5L261.5 85.03Z" fill="black"/>
<path d="M179.101 221.153C179.101 222.36 178.869 223.368 178.405 224.178C177.946 224.984 177.279 225.592 176.405 226.002C175.531 226.407 174.479 226.61 173.249 226.61H170.217V215.902H173.578C174.701 215.902 175.675 216.102 176.501 216.503C177.326 216.898 177.966 217.486 178.42 218.268C178.874 219.044 179.101 220.006 179.101 221.153ZM176.742 221.212C176.742 220.421 176.625 219.772 176.391 219.264C176.161 218.751 175.82 218.373 175.365 218.129C174.916 217.884 174.36 217.762 173.696 217.762H172.487V224.735H173.461C174.57 224.735 175.392 224.44 175.929 223.849C176.471 223.258 176.742 222.379 176.742 221.212ZM191.039 221.241C191.039 222.067 190.937 222.818 190.732 223.497C190.527 224.171 190.214 224.752 189.794 225.24C189.379 225.729 188.852 226.105 188.212 226.368C187.572 226.627 186.816 226.756 185.942 226.756C185.068 226.756 184.311 226.627 183.671 226.368C183.031 226.105 182.502 225.729 182.082 225.24C181.667 224.752 181.357 224.169 181.152 223.49C180.946 222.811 180.844 222.057 180.844 221.227C180.844 220.118 181.025 219.154 181.386 218.334C181.752 217.508 182.314 216.869 183.071 216.415C183.827 215.961 184.789 215.734 185.956 215.734C187.118 215.734 188.073 215.961 188.82 216.415C189.572 216.869 190.129 217.508 190.49 218.334C190.856 219.159 191.039 220.128 191.039 221.241ZM183.224 221.241C183.224 221.988 183.317 222.633 183.503 223.175C183.693 223.712 183.988 224.127 184.389 224.42C184.789 224.708 185.307 224.852 185.942 224.852C186.586 224.852 187.109 224.708 187.509 224.42C187.909 224.127 188.2 223.712 188.381 223.175C188.566 222.633 188.659 221.988 188.659 221.241C188.659 220.118 188.449 219.235 188.029 218.59C187.609 217.945 186.918 217.623 185.956 217.623C185.317 217.623 184.794 217.77 184.389 218.063C183.988 218.351 183.693 218.766 183.503 219.308C183.317 219.845 183.224 220.489 183.224 221.241ZM197.807 217.638C197.372 217.638 196.987 217.723 196.65 217.894C196.318 218.06 196.037 218.302 195.807 218.619C195.583 218.937 195.412 219.32 195.295 219.769C195.177 220.218 195.119 220.724 195.119 221.285C195.119 222.042 195.212 222.689 195.397 223.226C195.588 223.758 195.881 224.166 196.276 224.449C196.672 224.728 197.182 224.867 197.807 224.867C198.241 224.867 198.676 224.818 199.111 224.72C199.55 224.623 200.026 224.484 200.539 224.303V226.207C200.065 226.402 199.599 226.542 199.14 226.625C198.681 226.713 198.166 226.756 197.594 226.756C196.491 226.756 195.583 226.529 194.87 226.075C194.162 225.616 193.637 224.977 193.295 224.156C192.953 223.331 192.782 222.369 192.782 221.271C192.782 220.46 192.892 219.718 193.112 219.044C193.332 218.37 193.654 217.787 194.079 217.294C194.504 216.8 195.029 216.42 195.654 216.151C196.279 215.882 196.996 215.748 197.807 215.748C198.339 215.748 198.871 215.817 199.404 215.953C199.941 216.085 200.453 216.268 200.942 216.503L200.209 218.348C199.809 218.158 199.406 217.992 199.001 217.85C198.595 217.709 198.197 217.638 197.807 217.638ZM211.481 226.61H208.888L206.398 222.56L203.908 226.61H201.476L205.029 221.088L201.703 215.902H204.208L206.515 219.755L208.779 215.902H211.225L207.863 221.212L211.481 226.61Z" fill="white"/>
<path d="M219.158 125.28L209.015 168.75L197.745 125.28H192.915H188.085L176.815 168.75L166.672 125.28H157.334L171.019 180.02H181.323L192.915 135.101L204.507 180.02H214.811L228.496 125.28H219.158Z" fill="white"/>
</svg>
