<svg width="380" height="300" viewBox="0 0 380 300" fill="none" xmlns="http://www.w3.org/2000/svg">
<rect width="380" height="300" fill="#DD682B"/>
<path d="M264.45 84.3327V239.087C264.45 240.239 263.993 241.343 263.181 242.158C262.369 242.972 261.268 243.429 260.12 243.429H124.88C123.732 243.429 122.631 242.972 121.819 242.158C121.006 241.343 120.55 240.239 120.55 239.087V59.9134C120.55 58.7613 121.006 57.6566 121.819 56.8423C122.631 56.0281 123.732 55.5709 124.88 55.5709H235.762L264.45 84.3327Z" fill="#DD682B" stroke="#B15322"/>
<path opacity="0.2" d="M263.5 84.126H240.8C239.519 84.126 238.29 83.6158 237.385 82.7076C236.479 81.7995 235.97 80.5678 235.97 79.2835V56.5L263.5 84.126Z" fill="black"/>
<path d="M178.958 215.324C180.34 215.324 181.349 215.621 181.983 216.217C182.618 216.808 182.935 217.623 182.935 218.663C182.935 219.132 182.865 219.581 182.723 220.011C182.581 220.436 182.35 220.814 182.027 221.146C181.71 221.478 181.285 221.742 180.753 221.937C180.221 222.128 179.564 222.223 178.783 222.223H177.809V226.032H175.538V215.324H178.958ZM178.841 217.184H177.809V220.363H178.556C178.98 220.363 179.349 220.306 179.662 220.194C179.974 220.082 180.216 219.906 180.387 219.667C180.558 219.428 180.643 219.12 180.643 218.744C180.643 218.217 180.497 217.826 180.204 217.572C179.911 217.313 179.456 217.184 178.841 217.184ZM188.377 215.324C189.759 215.324 190.767 215.621 191.402 216.217C192.037 216.808 192.354 217.623 192.354 218.663C192.354 219.132 192.284 219.581 192.142 220.011C192 220.436 191.768 220.814 191.446 221.146C191.129 221.478 190.704 221.742 190.172 221.937C189.64 222.128 188.983 222.223 188.202 222.223H187.227V226.032H184.957V215.324H188.377ZM188.26 217.184H187.227V220.363H187.975C188.399 220.363 188.768 220.306 189.08 220.194C189.393 220.082 189.635 219.906 189.806 219.667C189.976 219.428 190.062 219.12 190.062 218.744C190.062 218.217 189.915 217.826 189.622 217.572C189.33 217.313 188.875 217.184 188.26 217.184ZM198.507 226.032H196.236V217.213H193.329V215.324H201.414V217.213H198.507V226.032ZM211.72 226.032H209.127L206.637 221.981L204.146 226.032H201.715L205.267 220.509L201.942 215.324H204.447L206.754 219.176L209.017 215.324H211.463L208.101 220.634L211.72 226.032Z" fill="white"/>
<path d="M192.5 158.378C199.332 158.378 205.884 155.657 210.715 150.813C215.546 145.97 218.26 139.401 218.26 132.551H192.5V106.724C185.668 106.724 179.116 109.445 174.285 114.289C169.454 119.132 166.74 125.701 166.74 132.551C166.74 139.401 169.454 145.97 174.285 150.813C179.116 155.657 185.668 158.378 192.5 158.378V158.378Z" fill="white"/>
<path d="M197.33 101.882V127.709H223.09C223.09 120.859 220.376 114.29 215.545 109.446C210.714 104.603 204.162 101.882 197.33 101.882V101.882Z" fill="white"/>
<path d="M232.75 190.661H152.25V193.89H232.75V190.661Z" fill="white"/>
<path d="M232.75 180.976H152.25V184.205H232.75V180.976Z" fill="white"/>
<path d="M232.75 171.291H152.25V174.52H232.75V171.291Z" fill="white"/>
</svg>
