<svg width="380" height="300" viewBox="0 0 380 300" fill="none" xmlns="http://www.w3.org/2000/svg">
<rect width="380" height="300" fill="#188079"/>
<path d="M262.278 84.6049V239.1C262.278 240.269 261.82 241.389 261.008 242.214C260.196 243.038 259.097 243.5 257.952 243.5H122.826C121.681 243.5 120.582 243.038 119.77 242.214C118.958 241.389 118.5 240.269 118.5 239.1V59.9C118.5 58.7306 118.958 57.6106 119.77 56.786C120.582 55.9617 121.681 55.5 122.826 55.5H233.613L262.278 84.6049Z" fill="#188079" stroke="#136661"/>
<path d="M236.959 169.5H143.819V125.3H219.709H236.959V134.2V169.5Z" stroke="white" stroke-width="2"/>
<rect x="151.092" y="132.7" width="6.20476" height="4.2" fill="white"/>
<rect x="161.433" y="132.7" width="6.20476" height="4.2" fill="white"/>
<rect x="151.092" y="157.9" width="6.20476" height="4.2" fill="white"/>
<rect x="161.433" y="157.9" width="6.20476" height="4.2" fill="white"/>
<rect width="21" height="4.13651" transform="matrix(-6.99572e-08 1 1 2.73122e-08 157.297 136.9)" fill="white"/>
<path opacity="0.2" d="M261.5 84.5L238.648 84.4C237.368 84.4 236.141 83.8837 235.235 82.9648C234.33 82.0459 233.822 80.7996 233.822 79.5L233.5 56L261.5 84.5Z" fill="black"/>
<path d="M173.375 210.531C173.375 211.357 173.272 212.108 173.067 212.787C172.862 213.461 172.55 214.042 172.13 214.53C171.715 215.019 171.187 215.395 170.548 215.658C169.908 215.917 169.151 216.046 168.277 216.046C167.403 216.046 166.646 215.917 166.007 215.658C165.367 215.395 164.837 215.019 164.417 214.53C164.002 214.042 163.692 213.459 163.487 212.78C163.282 212.101 163.179 211.347 163.179 210.517C163.179 209.408 163.36 208.444 163.721 207.624C164.088 206.798 164.649 206.159 165.406 205.705C166.163 205.251 167.125 205.024 168.292 205.024C169.454 205.024 170.408 205.251 171.156 205.705C171.907 206.159 172.464 206.798 172.825 207.624C173.192 208.449 173.375 209.418 173.375 210.531ZM165.56 210.531C165.56 211.278 165.653 211.923 165.838 212.465C166.029 213.002 166.324 213.417 166.724 213.71C167.125 213.998 167.642 214.142 168.277 214.142C168.922 214.142 169.444 213.998 169.844 213.71C170.245 213.417 170.535 213.002 170.716 212.465C170.902 211.923 170.994 211.278 170.994 210.531C170.994 209.408 170.784 208.525 170.365 207.88C169.945 207.235 169.254 206.913 168.292 206.913C167.652 206.913 167.13 207.06 166.724 207.353C166.324 207.641 166.029 208.056 165.838 208.598C165.653 209.135 165.56 209.779 165.56 210.531ZM177.828 215.9H175.594V205.192H181.732V207.052H177.828V209.814H181.461V211.667H177.828V215.9ZM193.546 210.531C193.546 211.357 193.443 212.108 193.238 212.787C193.033 213.461 192.72 214.042 192.301 214.53C191.885 215.019 191.358 215.395 190.719 215.658C190.079 215.917 189.322 216.046 188.448 216.046C187.574 216.046 186.817 215.917 186.177 215.658C185.538 215.395 185.008 215.019 184.588 214.53C184.173 214.042 183.863 213.459 183.658 212.78C183.453 212.101 183.35 211.347 183.35 210.517C183.35 209.408 183.531 208.444 183.892 207.624C184.259 206.798 184.82 206.159 185.577 205.705C186.334 205.251 187.296 205.024 188.463 205.024C189.625 205.024 190.579 205.251 191.326 205.705C192.078 206.159 192.635 206.798 192.996 207.624C193.363 208.449 193.546 209.418 193.546 210.531ZM185.731 210.531C185.731 211.278 185.823 211.923 186.009 212.465C186.199 213.002 186.495 213.417 186.895 213.71C187.296 213.998 187.813 214.142 188.448 214.142C189.093 214.142 189.615 213.998 190.015 213.71C190.416 213.417 190.706 213.002 190.887 212.465C191.073 211.923 191.165 211.278 191.165 210.531C191.165 209.408 190.955 208.525 190.535 207.88C190.115 207.235 189.425 206.913 188.463 206.913C187.823 206.913 187.301 207.06 186.895 207.353C186.495 207.641 186.199 208.056 186.009 208.598C185.823 209.135 185.731 209.779 185.731 210.531ZM198.885 205.192C199.857 205.192 200.657 205.309 201.287 205.544C201.922 205.778 202.393 206.132 202.701 206.606C203.009 207.079 203.162 207.677 203.162 208.4C203.162 208.888 203.07 209.316 202.884 209.682C202.698 210.048 202.454 210.358 202.152 210.612C201.849 210.866 201.522 211.073 201.17 211.234L204.32 215.9H201.8L199.244 211.791H198.035V215.9H195.765V205.192H198.885ZM198.724 207.052H198.035V209.945H198.768C199.52 209.945 200.057 209.821 200.379 209.572C200.706 209.318 200.87 208.947 200.87 208.459C200.87 207.951 200.694 207.589 200.343 207.375C199.996 207.16 199.456 207.052 198.724 207.052ZM210.201 215.9L207.623 207.499H207.557C207.567 207.699 207.581 208.002 207.601 208.407C207.625 208.808 207.647 209.235 207.667 209.689C207.686 210.143 207.696 210.553 207.696 210.92V215.9H205.667V205.192H208.758L211.292 213.38H211.336L214.024 205.192H217.115V215.9H214.998V210.832C214.998 210.495 215.003 210.107 215.013 209.667C215.028 209.228 215.045 208.81 215.064 208.415C215.084 208.014 215.098 207.714 215.108 207.514H215.042L212.281 215.9H210.201Z" fill="white"/>
</svg>
