<svg width="380" height="300" viewBox="0 0 380 300" fill="none" xmlns="http://www.w3.org/2000/svg">
<rect width="380" height="300" fill="#9E1919"/>
<path d="M262.778 84.4V239.1C262.778 240.4 262.269 241.646 261.364 242.565C260.459 243.484 259.232 244 257.952 244H122.826C121.546 244 120.319 243.484 119.413 242.565C118.508 241.646 118 240.4 118 239.1V59.9C118 58.6004 118.508 57.3541 119.413 56.4352C120.319 55.5162 121.546 55 122.826 55H233.822L262.778 84.4Z" fill="#9E1919"/>
<path fill-rule="evenodd" clip-rule="evenodd" d="M262.778 84.4L233.822 55H122.826C121.546 55 120.319 55.5162 119.413 56.4352C118.508 57.3541 118 58.6004 118 59.9V239.1C118 240.4 118.508 241.646 119.413 242.565C120.319 243.484 121.546 244 122.826 244H257.952C259.232 244 260.459 243.484 261.364 242.565C262.269 241.646 262.778 240.4 262.778 239.1V84.4ZM233.404 56L261.778 84.8098V239.1C261.778 240.139 261.371 241.133 260.652 241.863C259.933 242.593 258.962 243 257.952 243H122.826C121.816 243 120.845 242.593 120.126 241.863C119.407 241.133 119 240.139 119 239.1V59.9C119 58.8608 119.407 57.8671 120.126 57.1369C120.845 56.4071 121.816 56 122.826 56H233.404Z" fill="#7E1414"/>
<path opacity="0.2" d="M261.5 84.5L238.648 84.4C237.368 84.4 236.141 83.8837 235.235 82.9648C234.33 82.0459 233.822 80.7996 233.822 79.5L233.5 56L261.5 84.5Z" fill="black"/>
<path d="M200.115 215.9H197.882V205.192H204.019V207.052H200.115V209.814H203.748V211.667H200.115V215.9Z" fill="white"/>
<path d="M195.662 210.443C195.662 211.65 195.43 212.658 194.967 213.468C194.508 214.274 193.841 214.882 192.967 215.292C192.093 215.697 191.041 215.9 189.81 215.9H186.778V205.192H190.14C191.263 205.192 192.237 205.392 193.062 205.793C193.887 206.188 194.527 206.776 194.981 207.558C195.435 208.334 195.662 209.296 195.662 210.443ZM193.304 210.502C193.304 209.711 193.187 209.062 192.952 208.554C192.723 208.041 192.381 207.663 191.927 207.419C191.478 207.174 190.921 207.052 190.257 207.052H189.049V214.025H190.023C191.131 214.025 191.954 213.73 192.491 213.139C193.033 212.548 193.304 211.669 193.304 210.502Z" fill="white"/>
<path d="M180.78 205.192C182.161 205.192 183.17 205.49 183.804 206.086C184.439 206.676 184.757 207.492 184.757 208.532C184.757 209.001 184.686 209.45 184.544 209.879C184.403 210.304 184.171 210.683 183.848 211.015C183.531 211.347 183.106 211.61 182.574 211.806C182.042 211.996 181.385 212.091 180.604 212.091H179.63V215.9H177.359V205.192H180.78ZM180.662 207.052H179.63V210.231H180.377C180.802 210.231 181.17 210.175 181.483 210.063C181.795 209.95 182.037 209.775 182.208 209.535C182.379 209.296 182.464 208.988 182.464 208.612C182.464 208.085 182.318 207.694 182.025 207.441C181.732 207.182 181.278 207.052 180.662 207.052Z" fill="white"/>
<path d="M233 168H147V172H233V168Z" fill="white"/>
<path d="M233 158H192V162H233V158Z" fill="white"/>
<path d="M233 148H192V152H233V148Z" fill="white"/>
<path d="M233 138H192V142H233V138Z" fill="white"/>
<path d="M233 128H192V132H233V128Z" fill="white"/>
<path d="M182 129L182 162L186 162L186 129L182 129Z" fill="white"/>
<path d="M147 129L147 162L151 162L151 129L147 129Z" fill="white"/>
<path d="M186 158H147V162H186V158Z" fill="white"/>
<path d="M186 128H147V132H186V128Z" fill="white"/>
</svg>
