<svg width="380" height="300" viewBox="0 0 380 300" fill="none" xmlns="http://www.w3.org/2000/svg">
<rect width="380" height="300" fill="#1F7244"/>
<path d="M262.45 85.2371V239.59C262.45 240.738 261.994 241.84 261.182 242.652C260.37 243.464 259.268 243.92 258.12 243.92H122.88C121.732 243.92 120.63 243.464 119.818 242.652C119.006 241.84 118.55 240.738 118.55 239.59V60.88C118.55 59.7316 119.006 58.6303 119.818 57.8182C120.63 57.0062 121.732 56.55 122.88 56.55H233.763L262.45 85.2371Z" fill="#1F7244" stroke="#195B36"/>
<path opacity="0.2" d="M261.5 85H238.833C237.551 85 236.322 84.5083 235.416 83.6332C234.509 82.758 234 81.571 234 80.3333V57.5L261.5 85Z" fill="black"/>
<path d="M181.778 226.61H179.186L176.695 222.56L174.205 226.61H171.774L175.326 221.088L172.001 215.902H174.505L176.813 219.755L179.076 215.902H181.522L178.16 221.212L181.778 226.61ZM183.126 226.61V215.902H185.397V224.735H189.74V226.61H183.126ZM197.928 223.636C197.928 224.271 197.775 224.823 197.467 225.292C197.159 225.76 196.71 226.122 196.119 226.376C195.533 226.63 194.82 226.756 193.981 226.756C193.609 226.756 193.246 226.732 192.889 226.683C192.538 226.634 192.198 226.564 191.871 226.471C191.549 226.373 191.241 226.254 190.948 226.112V224.003C191.456 224.227 191.983 224.43 192.53 224.61C193.077 224.791 193.619 224.881 194.156 224.881C194.527 224.881 194.825 224.833 195.05 224.735C195.279 224.637 195.445 224.503 195.548 224.332C195.65 224.161 195.702 223.966 195.702 223.746C195.702 223.478 195.611 223.248 195.431 223.058C195.25 222.867 195.001 222.689 194.684 222.523C194.371 222.357 194.017 222.179 193.622 221.988C193.373 221.871 193.102 221.73 192.809 221.564C192.516 221.393 192.237 221.185 191.974 220.941C191.71 220.697 191.493 220.402 191.322 220.055C191.156 219.703 191.073 219.283 191.073 218.795C191.073 218.155 191.219 217.609 191.512 217.154C191.805 216.7 192.223 216.354 192.765 216.114C193.312 215.87 193.956 215.748 194.698 215.748C195.255 215.748 195.785 215.814 196.288 215.946C196.796 216.073 197.325 216.258 197.877 216.503L197.145 218.268C196.651 218.068 196.21 217.914 195.819 217.806C195.428 217.694 195.03 217.638 194.625 217.638C194.342 217.638 194.1 217.684 193.9 217.777C193.7 217.865 193.548 217.992 193.446 218.158C193.343 218.319 193.292 218.507 193.292 218.722C193.292 218.976 193.365 219.191 193.512 219.366C193.663 219.537 193.888 219.703 194.186 219.864C194.488 220.026 194.864 220.214 195.314 220.428C195.86 220.687 196.327 220.958 196.712 221.241C197.103 221.52 197.403 221.849 197.613 222.23C197.823 222.606 197.928 223.075 197.928 223.636ZM208.526 226.61H205.934L203.443 222.56L200.953 226.61H198.522L202.074 221.088L198.749 215.902H201.254L203.561 219.755L205.824 215.902H208.27L204.908 221.212L208.526 226.61Z" fill="white"/>
<path d="M194.928 147.224L213.04 120.45H204.185L190.5 140.672L176.815 120.45H167.96L186.073 147.224L167.155 175.19H176.01L190.5 153.777L204.99 175.19H213.845L194.928 147.224Z" fill="white"/>
</svg>
