<svg width="396" height="197" viewBox="0 0 396 197" fill="none" xmlns="http://www.w3.org/2000/svg">
<path opacity="0.2" fill-rule="evenodd" clip-rule="evenodd" d="M189.57 61.18L371.035 8.61809C386.779 3.95902 388.07 -8.47153 373.922 -19.1678L208.485 -151.028C191.571 -165.63 175.746 -171.59 151.957 -162.982L-29.2509 -110.689C-44.995 -106.03 -46.2867 -93.5995 -32.1382 -82.9032L126.008 48.7681C143.037 64.0611 159.751 68.6021 189.57 61.18Z" fill="#D9F4FF"/>
<path opacity="0.25" fill-rule="evenodd" clip-rule="evenodd" d="M92.3155 125.933L-71.0321 94.8733C-84.9812 92.0385 -87.1663 79.985 -75.9166 67.9305L55.0394 -79.6837C66.1606 -92.4473 86.3259 -100.433 99.73 -97.3827L263.078 -66.3231C277.027 -63.4882 279.212 -51.4348 267.962 -39.3802L137.006 108.234C124.073 123.195 105.591 128.275 92.3155 125.933Z" fill="#D9F4FF"/>
<path opacity="0.3" fill-rule="evenodd" clip-rule="evenodd" d="M118.895 51.4263L125.782 -169.181C126.243 -188.081 118.22 -194.928 107.848 -184.485L-17.9703 -65.3654C-28.814 -55.3255 -37.9068 -32.0479 -38.1219 -13.7771L-45.0092 206.831C-45.4701 225.731 -37.4469 232.577 -27.0752 222.134L98.743 103.015C111.436 91.3789 118.208 69.2944 118.895 51.4263Z" fill="#D9F4FF"/>
</svg>
