<svg width="50" height="50" viewBox="0 0 50 50" fill="none" xmlns="http://www.w3.org/2000/svg">
<path opacity="0.5" fill-rule="evenodd" clip-rule="evenodd" d="M22.8999 32.7917L15.4744 29.2918C14.8419 28.9863 14.8419 28.5141 15.4744 28.2363L18.0596 27.0141L22.8724 29.2918C23.505 29.5973 24.5225 29.5973 25.1276 29.2918L29.9404 27.0141L32.5256 28.2363C33.1581 28.5418 33.1581 29.014 32.5256 29.2918L25.1001 32.7917C24.5225 33.0695 23.505 33.0695 22.8999 32.7917Z" fill="white"/>
<path opacity="0.75" fill-rule="evenodd" clip-rule="evenodd" d="M22.8759 28.4607L15.473 24.9568C14.8423 24.6509 14.8423 24.1781 15.473 23.9L17.9954 22.7042L22.8759 25.0124C23.5065 25.3183 24.5209 25.3183 25.1241 25.0124L30.0046 22.7042L32.527 23.9C33.1577 24.2059 33.1577 24.6787 32.527 24.9568L25.1241 28.4607C24.4935 28.7666 23.4791 28.7666 22.8759 28.4607Z" fill="white"/>
<path fill-rule="evenodd" clip-rule="evenodd" d="M22.8759 24.1747L15.473 20.7212C14.8423 20.4197 14.8423 19.9537 15.473 19.6797L22.8759 16.2261C23.5065 15.9246 24.5209 15.9246 25.1241 16.2261L32.527 19.6797C33.1577 19.9811 33.1577 20.4471 32.527 20.7212L25.1241 24.1747C24.4935 24.4488 23.4791 24.4488 22.8759 24.1747Z" fill="white"/>
</svg>
