<svg width="50.00000000000001" height="50.00000000000001" xmlns="http://www.w3.org/2000/svg" class="icon">

 <g>
  <title>background</title>
  <rect fill="none" id="canvas_background" height="52" width="52" y="-1" x="-1"/>
 </g>
 <g>
  <title>Layer 1</title>
  <path stroke="null" d="m30.1794,28.842612q0.966076,1.069049 1.749687,1.444997q0.713442,0.345261 2.098227,0.473143q2.72278,0.253194 4.713396,-2.010217q1.983609,-2.250617 1.983609,-5.42451q0,-3.079256 -1.988287,-5.255717q-1.992965,-2.173892 -4.806963,-2.173892l-1.169583,0l0,-1.278763q0,-3.979513 -2.573069,-6.79534q-2.573069,-2.813278 -6.215137,-2.813278q-3.639729,0 -6.212798,2.813278t-2.573069,6.79534l0.002339,0.242968l0.023389,1.015334l-0.900577,0.255753q-2.250267,0.634269 -3.674813,2.641927q-1.426885,2.010217 -1.426885,4.55239q0,3.076698 1.992965,5.253158q1.988287,2.176451 4.804624,2.176451q1.621036,0 2.362545,-0.271096q0.814026,-0.299233 1.660798,-1.286439l1.707586,1.749347q-1.251445,1.457791 -2.624535,1.961619q-1.101744,0.404084 -3.106404,0.404084q-3.782414,0 -6.458415,-2.925807q-2.675991,-2.925807 -2.675991,-7.061328q0,-3.416851 1.913432,-6.117602q1.915771,-2.70075 4.940302,-3.554958l0.292396,1.237842l-1.169583,0.033245l-0.002339,-0.306899q0,-5.038327 3.258444,-8.60351q3.258444,-3.562634 7.866589,-3.562634t7.868928,3.562634q3.258444,3.562634 3.258444,8.60351l-1.169583,0l0,-1.278763q3.782414,0 6.458415,2.923248q2.675991,2.925807 2.675991,7.063887q0,4.20457 -2.63623,7.199435q-2.764881,3.138079 -6.596422,2.782583q-1.773076,-0.163685 -2.844414,-0.677749q-1.192972,-0.572887 -2.470146,-1.989757l1.663136,-1.797945l0,0.00003zm0.339174,0.900247q0,0.125322 -0.023389,0.248076t-0.0655,0.24041q-0.046779,0.115087 -0.10994,0.219949q-0.063161,0.104862 -0.145023,0.194371q-0.081872,0.089509 -0.177778,0.158567q-0.093567,0.071607 -0.201168,0.120205q-0.107601,0.046039 -0.219879,0.071607q-0.112278,0.025578 -0.226896,0.025578q-0.116956,0 -0.229235,-0.025578t-0.219879,-0.071607q-0.105262,-0.051147 -0.201168,-0.120205q-0.095906,-0.069048 -0.177778,-0.158567q-0.081872,-0.089509 -0.145023,-0.194371q-0.063161,-0.102303 -0.107601,-0.219949q-0.046779,-0.117646 -0.067839,-0.24041q-0.023389,-0.122764 -0.023389,-0.248076q0,-0.127871 0.023389,-0.250635t0.067839,-0.24041q0.04444,-0.115087 0.107601,-0.219949q0.063161,-0.104862 0.145023,-0.194371q0.081872,-0.089509 0.177778,-0.158567q0.093567,-0.069048 0.201168,-0.117646q0.107601,-0.051147 0.219879,-0.074166q0.112278,-0.025578 0.229235,-0.025578q0.114617,0 0.226896,0.025578t0.219879,0.074166q0.105262,0.048598 0.201168,0.117646q0.095906,0.069048 0.177778,0.158567q0.081872,0.089509 0.145023,0.194371q0.0655,0.102303 0.10994,0.219949q0.042101,0.117646 0.0655,0.24041q0.023389,0.122764 0.023389,0.250635zm-8.467743,0.332477q0,0.122764 -0.02105,0.248076q-0.023389,0.122764 -0.0655,0.24041q-0.046779,0.115087 -0.10994,0.219949q-0.063161,0.104862 -0.145023,0.194371q-0.081872,0.089509 -0.175439,0.158567q-0.095906,0.069048 -0.203507,0.117646q-0.105262,0.048598 -0.219879,0.074166q-0.112278,0.025578 -0.226896,0.025578q-0.116956,0 -0.229235,-0.025578t-0.219879,-0.074166q-0.105262,-0.048598 -0.201168,-0.117646q-0.095906,-0.069048 -0.177778,-0.158567q-0.081872,-0.089509 -0.145023,-0.194371q-0.063161,-0.102303 -0.107601,-0.219949q-0.04444,-0.117646 -0.067839,-0.24041q-0.023389,-0.125322 -0.023389,-0.250635t0.023389,-0.248076q0.023389,-0.125322 0.067839,-0.24041q0.04444,-0.117646 0.107601,-0.222508q0.063161,-0.102303 0.145023,-0.191812q0.081872,-0.089509 0.177778,-0.161126q0.093567,-0.069048 0.201168,-0.117646q0.107601,-0.048598 0.219879,-0.071607q0.112278,-0.025578 0.229235,-0.025578q0.114617,0 0.226896,0.025578q0.114617,0.025578 0.219879,0.071607q0.107601,0.051147 0.203507,0.117646q0.093567,0.071607 0.175439,0.161126q0.081872,0.08696 0.145023,0.191812q0.0655,0.104862 0.10994,0.222508q0.04444,0.115087 0.0655,0.24041q0.023389,0.122764 0.023389,0.248076l-0.002339,0.002559z" fill="#ffffff" id="svg_1"/>
  <path d="m16.481225,27.315533q-0.59485,-0.38734 -0.54505,-3.70743a2.68927,2.68927 0 0 1 0.60038,-1.64068l7.80497,-9.68912a2.76674,2.76674 0 0 1 3.89004,-0.42054l1.20907,0.97389a2.76674,2.76674 0 0 1 0.42054,3.8928l-7.7026,9.56185a2.69204,2.69204 0 0 1 -1.75411,0.99049q-3.33945,0.42608 -3.92324,0.0415l0,-0.00277l0,0.00001zm2.22169,-3.62443q-0.0083,0.54781 0,0.98773q0.57272,-0.0498 1.31143,-0.14387l7.69154,-9.54802l-1.20907,-0.97389l-7.79391,9.67806l0.00001,-0.00001z" fill="#ffffff" id="svg_2" stroke="null"/>
  <text font-weight="bold" stroke="#000" transform="matrix(0.4438183566652184,0,0,0.4438183566652184,3.014511183971983,10.84656016871968) " xml:space="preserve" text-anchor="start" font-family="Helvetica, Arial, sans-serif" font-size="24" id="svg_3" y="76.631494" x="2.410394" stroke-width="0" fill="#ffffff">在线编辑</text>
 </g>
</svg>