<svg width="50.00000000000001" height="50.00000000000001" xmlns="http://www.w3.org/2000/svg" class="icon">
 <g>
  <title>background</title>
  <rect x="-1" y="-1" width="52" height="52" id="canvas_background" fill="none"/>
 </g>

 <g>
  <title>Layer 1</title>
  <path stroke="null" id="svg_1" fill="#ffffff" d="m30.128889,27.480435q0.829277,0.917666 1.501923,1.240379q0.612413,0.296369 1.8011,0.406141q2.337218,0.217345 4.045955,-1.725561q1.702719,-1.93191 1.702719,-4.656359q0,-2.643218 -1.706736,-4.511479q-1.710745,-1.866054 -4.126266,-1.866054l-1.003961,0l0,-1.097689q0,-3.415988 -2.208708,-5.833079q-2.208708,-2.414894 -5.335039,-2.414894q-3.124323,0 -5.333031,2.414894t-2.208708,5.833079l0.002009,0.208564l0.020078,0.871553l-0.773053,0.219543q-1.93161,0.544454 -3.154435,2.267808q-1.224825,1.725561 -1.224825,3.907745q0,2.641021 1.710745,4.509281q1.706736,1.868252 4.124266,1.868252q1.391483,0 2.02799,-0.232702q0.698759,-0.256866 1.425621,-1.104272l1.465777,1.501632q-1.074229,1.251358 -2.252881,1.683834q-0.945727,0.346868 -2.666515,0.346868q-3.246807,0 -5.543869,-2.511498q-2.297054,-2.511498 -2.297054,-6.061404q0,-2.933004 1.642477,-5.251311q1.644486,-2.318308 4.240724,-3.051557l0.250994,1.062563l-1.003961,0.028533l-0.002009,-0.263441q0,-4.324873 2.797026,-7.385202q2.797034,-3.05814 6.752634,-3.05814t6.754643,3.05814q2.797026,3.058149 2.797026,7.385202l-1.003961,0l0,-1.09768q3.246798,0 5.543861,2.5093q2.297062,2.511489 2.297062,6.063593q0,3.609178 -2.262924,6.179956q-2.373365,2.693709 -5.662336,2.38855q-1.521993,-0.140502 -2.441625,-0.581777q-1.024038,-0.491757 -2.120362,-1.70799l1.427629,-1.54335l0,0.000026zm0.291142,0.772769q0,0.107574 -0.020078,0.21295t-0.056225,0.206367q-0.040147,0.098784 -0.094372,0.188795q-0.054216,0.09002 -0.124484,0.166855q-0.070277,0.076826 -0.152605,0.136107q-0.080311,0.06147 -0.172675,0.103188q-0.092363,0.03952 -0.188744,0.061461q-0.09638,0.021958 -0.19477,0.021958q-0.100389,0 -0.19677,-0.021958t-0.188744,-0.061461q-0.090355,-0.043907 -0.172683,-0.103188q-0.082329,-0.059272 -0.152605,-0.136107q-0.070277,-0.076835 -0.124484,-0.166855q-0.054216,-0.087814 -0.092363,-0.188795q-0.040156,-0.10099 -0.058233,-0.206367q-0.020078,-0.105385 -0.020078,-0.21295q0,-0.109763 0.020078,-0.215148t0.058233,-0.206367q0.038147,-0.098784 0.092363,-0.188804q0.054216,-0.090011 0.124484,-0.166846q0.070277,-0.076835 0.152605,-0.136107q0.08032,-0.059272 0.172683,-0.10099q0.092363,-0.043907 0.188744,-0.063667q0.096372,-0.021949 0.19677,-0.021949q0.098389,0 0.19477,0.021949t0.188744,0.063667q0.090355,0.041718 0.172675,0.10099q0.082329,0.059264 0.152605,0.136107q0.070277,0.076835 0.124484,0.166846q0.056225,0.087822 0.094372,0.188804q0.036147,0.10099 0.056225,0.206367q0.020078,0.105385 0.020078,0.215148zm-7.268658,0.285399q0,0.105376 -0.018069,0.212942q-0.020078,0.105385 -0.056225,0.206367q-0.040156,0.098793 -0.094372,0.188804q-0.054216,0.090011 -0.124484,0.166846q-0.070277,0.076835 -0.150597,0.136116q-0.082329,0.059272 -0.174692,0.10099q-0.090355,0.041709 -0.188744,0.063659q-0.096372,0.021958 -0.194761,0.021958q-0.100398,0 -0.196778,-0.021958t-0.188744,-0.063659q-0.090355,-0.041718 -0.172675,-0.10099q-0.082329,-0.059272 -0.152605,-0.136116q-0.070277,-0.076835 -0.124493,-0.166846q-0.054216,-0.087814 -0.092363,-0.188804q-0.038147,-0.100981 -0.058233,-0.206367q-0.020069,-0.107574 -0.020069,-0.215139t0.020069,-0.21295q0.020078,-0.107574 0.058233,-0.206367q0.038147,-0.10099 0.092363,-0.191001q0.054225,-0.087814 0.124493,-0.164649q0.070277,-0.076835 0.152605,-0.138304q0.080311,-0.059272 0.172675,-0.10099q0.092363,-0.041718 0.188744,-0.06147q0.09638,-0.021958 0.196778,-0.021958q0.098381,0 0.194761,0.021958q0.098389,0.021958 0.188744,0.06147q0.092363,0.043907 0.174692,0.10099q0.08032,0.061461 0.150597,0.138304q0.070277,0.074646 0.124484,0.164649q0.056225,0.090011 0.094372,0.191001q0.038147,0.098793 0.056225,0.206367q0.020078,0.105385 0.020078,0.21295l-0.002009,0.002197z"/>
  <path stroke="null" id="svg_2" fill="#ffffff" d="m18.42457,26.407973q-0.533491,-0.347386 -0.488828,-3.325006a2.41187,2.41187 0 0 1 0.53845,-1.471443l6.999891,-8.68968a2.481349,2.481349 0 0 1 3.488771,-0.377161l1.084363,0.873433a2.481349,2.481349 0 0 1 0.377152,3.491255l-6.908071,8.575538a2.414354,2.414354 0 0 1 -1.573172,0.88832q-2.994983,0.38213 -3.518555,0.037219l0,-0.002484l0,0.000009zm1.992521,-3.250567q-0.007444,0.491303 0,0.885845q0.513644,-0.044663 1.176155,-0.12903l6.898152,-8.563135l-1.084354,-0.873433l-6.989962,8.679761l0.000009,-0.000009z"/>
  <text fill="#ffffff" stroke-width="0" x="-5.862087" y="73.774998" id="svg_3" font-size="24" font-family="Helvetica, Arial, sans-serif" text-anchor="start" xml:space="preserve" transform="matrix(0.5116476441828898,0,0,0.5116476441828898,3.39044354477535,7.2631476173326694) " stroke="#000" font-weight="bold">在线编辑</text>
 </g>
</svg>